<svg width="36" height="24" viewBox="0 0 36 24" xmlns="http://www.w3.org/2000/svg" fill="none">
  <g id="Vector">
  <path d="M1.51137 14.7109C1.51137 14.1885 1.39259 13.763 1.15503 13.4344C0.917469 13.0974 0.53246 12.9289 0 12.9289V11.0711C0.53246 11.0711 0.917469 10.9068 1.15503 10.5782C1.39259 10.2496 1.51137 9.81991 1.51137 9.2891C1.51137 8.88468 1.4827 8.48447 1.42535 8.08847C1.3762 7.68404 1.31477 7.27962 1.24104 6.8752C1.16732 6.46235 1.10178 6.05371 1.04444 5.64929C0.99529 5.23644 0.970715 4.81938 0.970715 4.3981C0.970715 3.74092 1.06082 3.14271 1.24104 2.60348C1.42945 2.06424 1.71206 1.60084 2.08888 1.21327C2.47389 0.825698 2.9572 0.526593 3.53881 0.315956C4.12042 0.105319 4.80852 0 5.60311 0H6.26664V1.42812C6.26664 1.53765 6.24206 1.63454 6.19291 1.7188C6.15196 1.79463 6.09461 1.86203 6.02089 1.92101C5.94716 1.97156 5.87344 2.00948 5.79971 2.03476C5.72599 2.06003 5.66046 2.07267 5.60311 2.07267H5.48024C4.89863 2.07267 4.45218 2.26224 4.1409 2.64139C3.82961 3.02054 3.67397 3.54292 3.67397 4.20853C3.67397 4.68036 3.69855 5.13533 3.7477 5.57346C3.79685 6.00316 3.85009 6.42443 3.90743 6.83728C3.96478 7.25013 4.01802 7.65456 4.06717 8.05055C4.11632 8.44655 4.1409 8.84676 4.1409 9.25118C4.1409 9.57978 4.09584 9.89152 4.00573 10.1864C3.91563 10.4813 3.78456 10.7467 3.61253 10.9826C3.44051 11.2185 3.23572 11.4292 2.99816 11.6145C2.7606 11.7915 2.49027 11.9221 2.18718 12.0063C2.49027 12.099 2.7606 12.2338 2.99816 12.4107C3.23572 12.5877 3.44051 12.7983 3.61253 13.0427C3.78456 13.287 3.91563 13.5566 4.00573 13.8515C4.09584 14.138 4.1409 14.4413 4.1409 14.7615C4.1409 15.1659 4.11632 15.5703 4.06717 15.9747C4.01802 16.3707 3.96478 16.7751 3.90743 17.188C3.85009 17.5924 3.79685 18.0137 3.7477 18.4518C3.69855 18.8815 3.67397 19.3365 3.67397 19.8167C3.67397 20.4655 3.82961 20.9795 4.1409 21.3586C4.45218 21.7462 4.89863 21.94 5.48024 21.94H5.60311C5.66046 21.94 5.72599 21.9526 5.79971 21.9779C5.87344 22.0032 5.94716 22.0411 6.02089 22.0916C6.09461 22.1422 6.15196 22.2096 6.19291 22.2938C6.24206 22.3781 6.26664 22.4792 6.26664 22.5972V24H5.60311C4.80852 24 4.12042 23.8947 3.53881 23.684C2.9572 23.4734 2.47389 23.1743 2.08888 22.7867C1.71206 22.4076 1.42945 21.9484 1.24104 21.4092C1.06082 20.8699 0.970715 20.2717 0.970715 19.6145C0.970715 19.1933 0.99529 18.7804 1.04444 18.376C1.10178 17.9631 1.16732 17.5545 1.24104 17.1501C1.31477 16.7457 1.3762 16.3412 1.42535 15.9368C1.4827 15.524 1.51137 15.1153 1.51137 14.7109Z" fill="#26C248"/>
  <path d="M34.4886 14.7109C34.4886 15.1153 34.5132 15.524 34.5624 15.9368C34.6197 16.3412 34.6852 16.7457 34.759 17.1501C34.8327 17.5545 34.8941 17.9631 34.9433 18.376C35.0006 18.7804 35.0293 19.1933 35.0293 19.6145C35.0293 20.2717 34.9351 20.8699 34.7467 21.4092C34.5665 21.9484 34.2838 22.4076 33.8988 22.7867C33.522 23.1743 33.0428 23.4734 32.4612 23.684C31.8796 23.8947 31.1915 24 30.3969 24H29.7334V22.5972C29.7334 22.4792 29.7538 22.3781 29.7948 22.2938C29.8439 22.2096 29.9054 22.1422 29.9791 22.0916C30.0528 22.0411 30.1266 22.0032 30.2003 21.9779C30.274 21.9526 30.3395 21.94 30.3969 21.94H30.5075C31.0973 21.94 31.5478 21.7462 31.8591 21.3586C32.1704 20.9795 32.326 20.4655 32.326 19.8167C32.326 19.3365 32.3015 18.8815 32.2523 18.4518C32.2032 18.0137 32.1499 17.5924 32.0926 17.188C32.0352 16.7751 31.982 16.3707 31.9328 15.9747C31.8837 15.5703 31.8591 15.1659 31.8591 14.7615C31.8591 14.4413 31.9042 14.138 31.9943 13.8515C32.0844 13.5566 32.2113 13.287 32.3752 13.0427C32.5472 12.7983 32.752 12.5877 32.9896 12.4107C33.2353 12.2338 33.5097 12.099 33.8128 12.0063C33.5097 11.9221 33.2353 11.7915 32.9896 11.6145C32.752 11.4292 32.5472 11.2185 32.3752 10.9826C32.2113 10.7467 32.0844 10.4813 31.9943 10.1864C31.9042 9.89152 31.8591 9.57978 31.8591 9.25118C31.8591 8.84676 31.8837 8.44655 31.9328 8.05055C31.982 7.65456 32.0352 7.25013 32.0926 6.83728C32.1499 6.42443 32.2032 6.00316 32.2523 5.57346C32.3015 5.13533 32.326 4.68036 32.326 4.20853C32.326 3.54292 32.1704 3.02054 31.8591 2.64139C31.5478 2.26224 31.0973 2.07267 30.5075 2.07267H30.3969C30.3395 2.07267 30.274 2.06003 30.2003 2.03476C30.1266 2.00948 30.0528 1.97156 29.9791 1.92101C29.9054 1.86203 29.8439 1.79463 29.7948 1.7188C29.7538 1.63454 29.7334 1.53765 29.7334 1.42812V0H30.3969C31.1915 0 31.8796 0.105319 32.4612 0.315956C33.0428 0.526593 33.522 0.825698 33.8988 1.21327C34.2838 1.60084 34.5665 2.06424 34.7467 2.60348C34.9351 3.14271 35.0293 3.74092 35.0293 4.3981C35.0293 4.81938 35.0006 5.23644 34.9433 5.64929C34.8941 6.05371 34.8327 6.46235 34.759 6.8752C34.6852 7.27962 34.6197 7.68404 34.5624 8.08847C34.5132 8.48447 34.4886 8.88468 34.4886 9.2891C34.4886 9.81991 34.6074 10.2496 34.845 10.5782C35.0825 10.9068 35.4675 11.0711 36 11.0711V12.9289C35.4675 12.9289 35.0825 13.0974 34.845 13.4344C34.6074 13.763 34.4886 14.1885 34.4886 14.7109Z" fill="#26C248"/>
  <path d="M22.2208 17.643C21.6555 17.643 21.1477 17.5039 20.6971 17.2259C20.2466 16.9479 19.9353 16.5013 19.7633 15.8863C19.2636 16.5097 18.7352 16.9563 18.1782 17.2259C17.6293 17.4955 17.0354 17.6303 16.3965 17.6303C15.8722 17.6303 15.4135 17.5377 15.0203 17.3523C14.6353 17.1585 14.3076 16.8973 14.0373 16.5687C13.7751 16.2317 13.5785 15.8357 13.4475 15.3807C13.3164 14.9258 13.2509 14.4329 13.2509 13.9021C13.2509 13.405 13.3123 12.9036 13.4352 12.3981C13.5581 11.8926 13.7383 11.4081 13.9758 10.9447C14.2216 10.4729 14.5247 10.0348 14.8851 9.63033C15.2537 9.21748 15.6838 8.8594 16.1753 8.55608C16.675 8.24434 17.232 8 17.8464 7.82306C18.4608 7.64613 19.1407 7.55766 19.8861 7.55766C20.5333 7.55766 21.0862 7.60821 21.545 7.70932C22.0037 7.81043 22.4501 7.95787 22.8843 8.15166L21.6678 12.9542C21.5368 13.5018 21.4712 13.961 21.4712 14.3318C21.4712 14.5929 21.4999 14.812 21.5572 14.9889C21.6228 15.1575 21.7088 15.2965 21.8153 15.406C21.9218 15.5071 22.0487 15.5787 22.1962 15.6209C22.3518 15.6546 22.5157 15.6714 22.6877 15.6714C23.0399 15.6714 23.3717 15.5577 23.683 15.3302C24.0025 15.1027 24.2769 14.7825 24.5062 14.3697C24.7438 13.9484 24.9322 13.4555 25.0715 12.891C25.2107 12.3181 25.2804 11.6946 25.2804 11.0205C25.2804 9.89995 25.1083 8.91417 24.7643 8.06319C24.4284 7.20379 23.9574 6.48763 23.3512 5.91469C22.745 5.34176 22.016 4.91206 21.164 4.62559C20.3203 4.33913 19.3946 4.19589 18.3871 4.19589C17.2894 4.19589 16.2695 4.41074 15.3275 4.84044C14.3854 5.26172 13.5663 5.84308 12.87 6.58452C12.1819 7.32596 11.6412 8.20221 11.248 9.21327C10.8548 10.2243 10.6582 11.3112 10.6582 12.4739C10.6582 13.8894 10.8712 15.1364 11.2972 16.2149C11.7313 17.2849 12.3211 18.1822 13.0666 18.9068C13.812 19.623 14.6885 20.1622 15.6961 20.5245C16.7119 20.8868 17.8054 21.0679 18.9769 21.0679C19.624 21.0679 20.2261 21.03 20.7831 20.9542C21.3484 20.8868 21.8644 20.7899 22.3314 20.6635C22.8065 20.5371 23.2365 20.3939 23.6215 20.2338C24.0066 20.0737 24.3506 19.901 24.6537 19.7156C24.8175 19.623 24.9609 19.5766 25.0838 19.5766C25.3295 19.5766 25.5015 19.7156 25.5998 19.9937L26.0299 21.1438C25.1534 21.7335 24.1294 22.2138 22.958 22.5845C21.7948 22.9552 20.4677 23.1406 18.9769 23.1406C17.4614 23.1406 16.0565 22.892 14.7622 22.3949C13.4679 21.9063 12.3498 21.2027 11.4077 20.2844C10.4657 19.366 9.72845 18.2496 9.19599 16.9352C8.66353 15.6124 8.3973 14.1253 8.3973 12.4739C8.3973 11.5471 8.51198 10.6498 8.74135 9.78199C8.97071 8.91417 9.29838 8.09689 9.72435 7.33017C10.1585 6.56345 10.6746 5.86414 11.2726 5.23223C11.8788 4.59189 12.5505 4.04423 13.2877 3.58926C14.025 3.12586 14.8237 2.76777 15.6838 2.51501C16.5439 2.26224 17.445 2.13586 18.3871 2.13586C19.5749 2.13586 20.7176 2.34229 21.8153 2.75513C22.913 3.15956 23.8837 3.74513 24.7274 4.51185C25.5712 5.27014 26.2429 6.20116 26.7426 7.3049C27.2423 8.40021 27.4921 9.63876 27.4921 11.0205C27.4921 11.9473 27.361 12.8152 27.0989 13.624C26.8368 14.4244 26.4682 15.1237 25.993 15.722C25.5179 16.3202 24.9609 16.792 24.3219 17.1374C23.683 17.4745 22.9826 17.643 22.2208 17.643ZM17.0109 15.5703C17.232 15.5703 17.4532 15.5366 17.6744 15.4692C17.8956 15.3934 18.1044 15.267 18.301 15.09C18.5058 14.9131 18.6901 14.6814 18.854 14.3949C19.026 14.1001 19.1694 13.7335 19.284 13.2954L20.2056 9.64297C19.9353 9.59242 19.6568 9.56714 19.3701 9.56714C18.8458 9.56714 18.3584 9.6851 17.9078 9.92101C17.4573 10.1485 17.0641 10.4602 16.7282 10.8562C16.4006 11.2522 16.1384 11.7072 15.9418 12.2212C15.7534 12.7351 15.6592 13.2701 15.6592 13.8262C15.6592 14.3739 15.7739 14.8036 16.0033 15.1153C16.2326 15.4186 16.5685 15.5703 17.0109 15.5703Z" fill="#26C248"/>
  </g>
</svg>

