<svg class="logo" width="185" height="119" viewBox="0 0 185 119" fill="none" xmlns="http://www.w3.org/2000/svg">
	<title>Logo</title>
	<g id="Vector">
	<path id="a" fill-rule="evenodd" clip-rule="evenodd" d="M8.60001 72.75C8.60001 70.1667 7.99584 68.0625 6.78751 66.4375C5.57917 64.7708 3.62084 63.9375 0.912506 63.9375V54.75C3.62084 54.75 5.57917 53.9375 6.78751 52.3125C7.99584 50.6875 8.60001 48.5625 8.60001 45.9375C8.60001 43.9375 8.45417 41.9583 8.16251 40C7.91251 38 7.60001 36 7.22501 34C6.85001 31.9583 6.51667 29.9375 6.22501 27.9375C5.97501 25.8958 5.85001 23.8333 5.85001 21.75C5.85001 18.5 6.30834 15.5417 7.22501 12.875C8.18334 10.2083 9.62084 7.91667 11.5375 6C13.4958 4.08333 15.9542 2.60417 18.9125 1.5625C21.8708 0.520833 25.3708 0 29.4125 0H32.7875V7.0625C32.7875 7.60417 32.6625 8.08333 32.4125 8.5C32.2042 8.875 31.9125 9.20833 31.5375 9.5C31.1625 9.75 30.7875 9.9375 30.4125 10.0625C30.0375 10.1875 29.7042 10.25 29.4125 10.25H28.7875C25.8292 10.25 23.5583 11.1875 21.975 13.0625C20.3917 14.9375 19.6 17.5208 19.6 20.8125C19.6 23.1458 19.725 25.3958 19.975 27.5625C20.225 29.6875 20.4958 31.7708 20.7875 33.8125C21.0792 35.8542 21.35 37.8542 21.6 39.8125C21.85 41.7708 21.975 43.75 21.975 45.75C21.975 47.375 21.7458 48.9167 21.2875 50.375C20.8292 51.8333 20.1625 53.1458 19.2875 54.3125C18.4125 55.4792 17.3708 56.5208 16.1625 57.4375C14.9542 58.3125 13.5792 58.9583 12.0375 59.375C13.5792 59.8333 14.9542 60.5 16.1625 61.375C17.3708 62.25 18.4125 63.2917 19.2875 64.5C20.1625 65.7083 20.8292 67.0417 21.2875 68.5C21.7458 69.9167 21.975 71.4167 21.975 73C21.975 75 21.85 77 21.6 79C21.35 80.9583 21.0792 82.9583 20.7875 85C20.4958 87 20.225 89.0833 19.975 91.25C19.725 93.375 19.6 95.625 19.6 98C19.6 101.208 20.3917 103.75 21.975 105.625C23.5583 107.542 25.8292 108.5 28.7875 108.5H29.4125C29.7042 108.5 30.0375 108.562 30.4125 108.688C30.7875 108.812 31.1625 109 31.5375 109.25C31.9125 109.5 32.2042 109.833 32.4125 110.25C32.6625 110.667 32.7875 111.167 32.7875 111.75V118.688H29.4125C25.3708 118.688 21.8708 118.167 18.9125 117.125C15.9542 116.083 13.4958 114.604 11.5375 112.688C9.62084 110.812 8.18334 108.542 7.22501 105.875C6.30834 103.208 5.85001 100.25 5.85001 97C5.85001 94.9167 5.97501 92.875 6.22501 90.875C6.51667 88.8333 6.85001 86.8125 7.22501 84.8125C7.60001 82.8125 7.91251 80.8125 8.16251 78.8125C8.45417 76.7708 8.60001 74.75 8.60001 72.75Z"/>
	<path id="b" fill-rule="evenodd" clip-rule="evenodd" d="M176.337 72.75C176.337 74.75 176.462 76.7708 176.712 78.8125C177.004 80.8125 177.337 82.8125 177.712 84.8125C178.087 86.8125 178.4 88.8333 178.65 90.875C178.942 92.875 179.087 94.9167 179.087 97C179.087 100.25 178.608 103.208 177.65 105.875C176.733 108.542 175.296 110.812 173.337 112.688C171.421 114.604 168.983 116.083 166.025 117.125C163.067 118.167 159.567 118.688 155.525 118.688H152.15V111.75C152.15 111.167 152.254 110.667 152.462 110.25C152.712 109.833 153.025 109.5 153.4 109.25C153.775 109 154.15 108.812 154.525 108.688C154.9 108.562 155.233 108.5 155.525 108.5H156.087C159.087 108.5 161.379 107.542 162.962 105.625C164.546 103.75 165.337 101.208 165.337 98C165.337 95.625 165.212 93.375 164.962 91.25C164.712 89.0833 164.442 87 164.15 85C163.858 82.9583 163.587 80.9583 163.337 79C163.087 77 162.962 75 162.962 73C162.962 71.4167 163.192 69.9167 163.65 68.5C164.108 67.0417 164.754 65.7083 165.587 64.5C166.462 63.2917 167.504 62.25 168.712 61.375C169.962 60.5 171.358 59.8333 172.9 59.375C171.358 58.9583 169.962 58.3125 168.712 57.4375C167.504 56.5208 166.462 55.4792 165.587 54.3125C164.754 53.1458 164.108 51.8333 163.65 50.375C163.192 48.9167 162.962 47.375 162.962 45.75C162.962 43.75 163.087 41.7708 163.337 39.8125C163.587 37.8542 163.858 35.8542 164.15 33.8125C164.442 31.7708 164.712 29.6875 164.962 27.5625C165.212 25.3958 165.337 23.1458 165.337 20.8125C165.337 17.5208 164.546 14.9375 162.962 13.0625C161.379 11.1875 159.087 10.25 156.087 10.25H155.525C155.233 10.25 154.9 10.1875 154.525 10.0625C154.15 9.9375 153.775 9.75 153.4 9.5C153.025 9.20833 152.712 8.875 152.462 8.5C152.254 8.08333 152.15 7.60417 152.15 7.0625V0H155.525C159.567 0 163.067 0.520833 166.025 1.5625C168.983 2.60417 171.421 4.08333 173.337 6C175.296 7.91667 176.733 10.2083 177.65 12.875C178.608 15.5417 179.087 18.5 179.087 21.75C179.087 23.8333 178.942 25.8958 178.65 27.9375C178.4 29.9375 178.087 31.9583 177.712 34C177.337 36 177.004 38 176.712 40C176.462 41.9583 176.337 43.9375 176.337 45.9375C176.337 48.5625 176.942 50.6875 178.15 52.3125C179.358 53.9375 181.317 54.75 184.025 54.75V63.9375C181.317 63.9375 179.358 64.7708 178.15 66.4375C176.942 68.0625 176.337 70.1667 176.337 72.75Z"/>
	<path id="c" fill-rule="evenodd" clip-rule="evenodd" d="M113.938 87.25C111.062 87.25 108.479 86.5625 106.188 85.1875C103.896 83.8125 102.312 81.6042 101.438 78.5625C98.8958 81.6458 96.2083 83.8542 93.375 85.1875C90.5833 86.5208 87.5625 87.1875 84.3125 87.1875C81.6458 87.1875 79.3125 86.7292 77.3125 85.8125C75.3542 84.8542 73.6875 83.5625 72.3125 81.9375C70.9792 80.2708 69.9792 78.3125 69.3125 76.0625C68.6458 73.8125 68.3125 71.375 68.3125 68.75C68.3125 66.2917 68.625 63.8125 69.25 61.3125C69.875 58.8125 70.7917 56.4167 72 54.125C73.25 51.7917 74.7917 49.625 76.625 47.625C78.5 45.5833 80.6875 43.8125 83.1875 42.3125C85.7292 40.7708 88.5625 39.5625 91.6875 38.6875C94.8125 37.8125 98.2708 37.375 102.062 37.375C105.354 37.375 108.167 37.625 110.5 38.125C112.833 38.625 115.104 39.3542 117.312 40.3125L111.125 64.0625C110.458 66.7708 110.125 69.0417 110.125 70.875C110.125 72.1667 110.271 73.25 110.562 74.125C110.896 74.9583 111.333 75.6458 111.875 76.1875C112.417 76.6875 113.062 77.0417 113.812 77.25C114.604 77.4167 115.438 77.5 116.312 77.5C118.104 77.5 119.792 76.9375 121.375 75.8125C123 74.6875 124.396 73.1042 125.562 71.0625C126.771 68.9792 127.729 66.5417 128.438 63.75C129.146 60.9167 129.5 57.8333 129.5 54.5C129.5 48.9583 128.625 44.0833 126.875 39.875C125.167 35.625 122.771 32.0833 119.688 29.25C116.604 26.4167 112.896 24.2917 108.562 22.875C104.271 21.4583 99.5625 20.75 94.4375 20.75C88.8542 20.75 83.6667 21.8125 78.875 23.9375C74.0833 26.0208 69.9167 28.8958 66.375 32.5625C62.875 36.2292 60.125 40.5625 58.125 45.5625C56.125 50.5625 55.125 55.9375 55.125 61.6875C55.125 68.6875 56.2083 74.8542 58.375 80.1875C60.5833 85.4792 63.5833 89.9167 67.375 93.5C71.1667 97.0417 75.625 99.7083 80.75 101.5C85.9167 103.292 91.4792 104.188 97.4375 104.188C100.729 104.188 103.792 104 106.625 103.625C109.5 103.292 112.125 102.812 114.5 102.188C116.917 101.562 119.104 100.854 121.062 100.062C123.021 99.2708 124.771 98.4167 126.312 97.5C127.146 97.0417 127.875 96.8125 128.5 96.8125C129.75 96.8125 130.625 97.5 131.125 98.875L133.312 104.562C128.854 107.479 123.646 109.854 117.688 111.688C111.771 113.521 105.021 114.438 97.4375 114.438C89.7292 114.438 82.5833 113.208 76 110.75C69.4167 108.333 63.7292 104.854 58.9375 100.312C54.1458 95.7708 50.3958 90.25 47.6875 83.75C44.9792 77.2083 43.625 69.8542 43.625 61.6875C43.625 57.1042 44.2083 52.6667 45.375 48.375C46.5417 44.0833 48.2083 40.0417 50.375 36.25C52.5833 32.4583 55.2083 29 58.25 25.875C61.3333 22.7083 64.75 20 68.5 17.75C72.25 15.4583 76.3125 13.6875 80.6875 12.4375C85.0625 11.1875 89.6458 10.5625 94.4375 10.5625C100.479 10.5625 106.292 11.5833 111.875 13.625C117.458 15.625 122.396 18.5208 126.688 22.3125C130.979 26.0625 134.396 30.6667 136.938 36.125C139.479 41.5417 140.75 47.6667 140.75 54.5C140.75 59.0833 140.083 63.375 138.75 67.375C137.417 71.3333 135.542 74.7917 133.125 77.75C130.708 80.7083 127.875 83.0417 124.625 84.75C121.375 86.4167 117.812 87.25 113.938 87.25ZM87.4375 77C88.5625 77 89.6875 76.8333 90.8125 76.5C91.9375 76.125 93 75.5 94 74.625C95.0417 73.75 95.9792 72.6042 96.8125 71.1875C97.6875 69.7292 98.4167 67.9167 99 65.75L103.688 47.6875C102.312 47.4375 100.896 47.3125 99.4375 47.3125C96.7708 47.3125 94.2917 47.8958 92 49.0625C89.7083 50.1875 87.7083 51.7292 86 53.6875C84.3333 55.6458 83 57.8958 82 60.4375C81.0417 62.9792 80.5625 65.625 80.5625 68.375C80.5625 71.0833 81.1458 73.2083 82.3125 74.75C83.4792 76.25 85.1875 77 87.4375 77Z"/>
	</g>
</svg>
